<svg width="20" height="21" viewBox="0 0 20 21" fill="none" xmlns="http://www.w3.org/2000/svg">
<path d="M5.8 0.905273H14.2C17.4 0.905273 20 3.50698 20 6.70909V15.1146C20 16.6539 19.3889 18.1301 18.3012 19.2185C17.2135 20.307 15.7383 20.9184 14.2 20.9184H5.8C2.6 20.9184 0 18.3167 0 15.1146V6.70909C0 5.16982 0.61107 3.6936 1.69878 2.60517C2.78649 1.51675 4.26174 0.905273 5.8 0.905273ZM5.6 2.90659C4.64522 2.90659 3.72955 3.28612 3.05442 3.9617C2.37928 4.63727 2 5.55355 2 6.50896V15.3147C2 17.3061 3.61 18.9171 5.6 18.9171H14.4C15.3548 18.9171 16.2705 18.5376 16.9456 17.862C17.6207 17.1864 18 16.2702 18 15.3147V6.50896C18 4.51765 16.39 2.90659 14.4 2.90659H5.6ZM15.25 4.40758C15.5815 4.40758 15.8995 4.53936 16.1339 4.77393C16.3683 5.00851 16.5 5.32666 16.5 5.6584C16.5 5.99014 16.3683 6.30829 16.1339 6.54286C15.8995 6.77744 15.5815 6.90922 15.25 6.90922C14.9185 6.90922 14.6005 6.77744 14.3661 6.54286C14.1317 6.30829 14 5.99014 14 5.6584C14 5.32666 14.1317 5.00851 14.3661 4.77393C14.6005 4.53936 14.9185 4.40758 15.25 4.40758ZM10 5.90856C11.3261 5.90856 12.5979 6.43569 13.5355 7.37399C14.4732 8.31229 15 9.5849 15 10.9119C15 12.2388 14.4732 13.5114 13.5355 14.4497C12.5979 15.388 11.3261 15.9151 10 15.9151C8.67392 15.9151 7.40215 15.388 6.46447 14.4497C5.52678 13.5114 5 12.2388 5 10.9119C5 9.5849 5.52678 8.31229 6.46447 7.37399C7.40215 6.43569 8.67392 5.90856 10 5.90856ZM10 7.90988C9.20435 7.90988 8.44129 8.22616 7.87868 8.78914C7.31607 9.35212 7 10.1157 7 10.9119C7 11.708 7.31607 12.4716 7.87868 13.0346C8.44129 13.5975 9.20435 13.9138 10 13.9138C10.7956 13.9138 11.5587 13.5975 12.1213 13.0346C12.6839 12.4716 13 11.708 13 10.9119C13 10.1157 12.6839 9.35212 12.1213 8.78914C11.5587 8.22616 10.7956 7.90988 10 7.90988Z" fill="#5A47AB"/>
</svg>
