<svg width="24" height="21" viewBox="0 0 24 21" fill="none" xmlns="http://www.w3.org/2000/svg">
<path d="M22.46 5.16457C21.69 5.46584 20.86 5.66381 20 5.7585C20.88 5.30229 21.56 4.57926 21.88 3.70989C21.05 4.14027 20.13 4.44154 19.16 4.61369C18.37 3.87343 17.26 3.44305 16 3.44305C13.65 3.44305 11.73 5.09571 11.73 7.13571C11.73 7.42837 11.77 7.71242 11.84 7.97926C8.28 7.82432 5.11 6.35242 3 4.12305C2.63 4.66533 2.42 5.30229 2.42 5.97369C2.42 7.25622 3.17 8.39242 4.33 9.03799C3.62 9.03799 2.96 8.86584 2.38 8.60761V8.63343C2.38 10.4238 3.86 11.9215 5.82 12.2572C5.19073 12.4055 4.5301 12.4261 3.89 12.3175C4.16161 13.0513 4.69354 13.6933 5.41102 14.1534C6.1285 14.6135 6.99545 14.8685 7.89 14.8825C6.37363 15.9158 4.494 16.4744 2.56 16.4663C2.22 16.4663 1.88 16.4491 1.54 16.4147C3.44 17.4648 5.7 18.076 8.12 18.076C16 18.076 20.33 12.4466 20.33 7.56609C20.33 7.40255 20.33 7.24761 20.32 7.08407C21.16 6.56761 21.88 5.91343 22.46 5.16457Z" fill="#5A47AB"/>
</svg>
