<svg width="24" height="21" viewBox="0 0 24 21" fill="none" xmlns="http://www.w3.org/2000/svg">
<path d="M10 12.9114L15.19 10.3291L10 7.74681V12.9114ZM21.56 6.17162C21.69 6.57618 21.78 7.11846 21.84 7.80706C21.91 8.49567 21.94 9.08959 21.94 9.60605L22 10.3291C22 12.2142 21.84 13.6 21.56 14.4866C21.31 15.2612 20.73 15.7605 19.83 15.9757C19.36 16.0876 18.5 16.165 17.18 16.2167C15.88 16.2769 14.69 16.3028 13.59 16.3028L12 16.3544C7.81 16.3544 5.2 16.2167 4.17 15.9757C3.27 15.7605 2.69 15.2612 2.44 14.4866C2.31 14.082 2.22 13.5397 2.16 12.8511C2.09 12.1625 2.06 11.5686 2.06 11.0521L2 10.3291C2 8.44402 2.16 7.0582 2.44 6.17162C2.69 5.39694 3.27 4.8977 4.17 4.68251C4.64 4.57061 5.5 4.49314 6.82 4.44149C8.12 4.38124 9.31 4.35542 10.41 4.35542L12 4.30377C16.19 4.30377 18.8 4.44149 19.83 4.68251C20.73 4.8977 21.31 5.39694 21.56 6.17162Z" fill="#5A47AB"/>
</svg>
